<svg aria-hidden="true" style="position: absolute; width: 0; height: 0; overflow: hidden;" version="1.1" xmlns="http://www.w3.org/2000/svg" xmlns:xlink="http://www.w3.org/1999/xlink">
<defs>
<symbol id="icon-arrow-down" viewBox="0 0 32 32">
<path d="M9.88 11.453l6.12 6.107 6.12-6.107 1.88 1.88-8 8-8-8 1.88-1.88z"></path>
</symbol>
<symbol id="icon-developer-mode" viewBox="0 0 32 32">
<path d="M9.333 6.667h13.333v2.667h2.667v-5.333c0-1.467-1.2-2.653-2.667-2.653l-13.333-0.013c-1.467 0-2.667 1.2-2.667 2.667v5.333h2.667v-2.667zM20.547 22.12l6.12-6.12-6.12-6.12-1.88 1.893 4.227 4.227-4.227 4.227 1.88 1.893zM13.333 20.227l-4.227-4.227 4.227-4.227-1.88-1.893-6.12 6.12 6.12 6.12 1.88-1.893zM22.667 25.333h-13.333v-2.667h-2.667v5.333c0 1.467 1.2 2.667 2.667 2.667h13.333c1.467 0 2.667-1.2 2.667-2.667v-5.333h-2.667v2.667z"></path>
</symbol>
<symbol id="icon-email" viewBox="0 0 32 32">
<path d="M26.667 5.333h-21.333c-1.467 0-2.653 1.2-2.653 2.667l-0.013 16c0 1.467 1.2 2.667 2.667 2.667h21.333c1.467 0 2.667-1.2 2.667-2.667v-16c0-1.467-1.2-2.667-2.667-2.667zM26.667 10.667l-10.667 6.667-10.667-6.667v-2.667l10.667 6.667 10.667-6.667v2.667z"></path>
</symbol>
<symbol id="icon-logo-facebook" viewBox="0 0 32 32">
<path d="M30 16.084c0-7.731-6.269-14-14-14s-14 6.269-14 14c0 6.988 5.119 12.779 11.813 13.831v-9.783h-3.556v-4.048h3.556v-3.084c0-3.508 2.091-5.447 5.288-5.447 1.532 0 3.134 0.274 3.134 0.274v3.446h-1.766c-1.738 0-2.282 1.079-2.282 2.188v2.625h3.883l-0.62 4.048h-3.262v9.784c6.694-1.051 11.812-6.843 11.812-13.832z"></path>
</symbol>
<symbol id="icon-logo-github" viewBox="0 0 32 32">
<path d="M16 2c-7.731 0-14 6.431-14 14.356 0 6.344 4.013 11.719 9.575 13.619 0.078 0.017 0.158 0.025 0.238 0.025 0.519 0 0.719-0.381 0.719-0.712 0-0.344-0.012-1.244-0.019-2.444-0.463 0.109-0.937 0.165-1.412 0.169-2.694 0-3.306-2.094-3.306-2.094-0.638-1.656-1.556-2.1-1.556-2.1-1.219-0.856-0.006-0.881 0.088-0.881h0.006c1.406 0.125 2.144 1.488 2.144 1.488 0.7 1.225 1.637 1.569 2.475 1.569 0.554-0.011 1.099-0.139 1.6-0.375 0.125-0.925 0.488-1.556 0.887-1.919-3.106-0.363-6.375-1.594-6.375-7.094 0-1.569 0.544-2.85 1.438-3.85-0.144-0.363-0.625-1.825 0.137-3.8 0.102-0.024 0.207-0.035 0.313-0.031 0.506 0 1.65 0.194 3.537 1.506 2.293-0.642 4.719-0.642 7.013 0 1.888-1.313 3.031-1.506 3.537-1.506 0.105-0.004 0.21 0.007 0.313 0.031 0.762 1.975 0.281 3.438 0.137 3.8 0.894 1.006 1.437 2.287 1.437 3.85 0 5.512-3.275 6.725-6.394 7.081 0.5 0.444 0.95 1.319 0.95 2.656 0 1.919-0.019 3.469-0.019 3.938 0 0.337 0.194 0.719 0.712 0.719 0.084 0 0.168-0.008 0.25-0.025 5.569-1.9 9.575-7.281 9.575-13.619 0-7.925-6.269-14.356-14-14.356z"></path>
</symbol>
<symbol id="icon-logo-instagram" viewBox="0 0 32 32">
<path d="M21.833 4.333c1.546 0.005 3.027 0.621 4.12 1.714s1.709 2.574 1.714 4.12v11.666c-0.005 1.546-0.621 3.027-1.714 4.12s-2.574 1.709-4.12 1.714h-11.666c-1.546-0.005-3.027-0.621-4.12-1.714s-1.709-2.574-1.714-4.12v-11.666c0.005-1.546 0.621-3.027 1.714-4.12s2.574-1.709 4.12-1.714h11.666zM21.833 2h-11.666c-4.492 0-8.167 3.675-8.167 8.167v11.666c0 4.492 3.675 8.167 8.167 8.167h11.666c4.492 0 8.167-3.675 8.167-8.167v-11.666c0-4.492-3.675-8.167-8.167-8.167z"></path>
<path d="M23.583 10.167c-0.346 0-0.684-0.103-0.972-0.295s-0.512-0.466-0.644-0.785c-0.132-0.32-0.167-0.672-0.1-1.011s0.234-0.651 0.479-0.896c0.245-0.245 0.556-0.411 0.896-0.479s0.691-0.033 1.011 0.1c0.32 0.132 0.593 0.357 0.785 0.645s0.295 0.626 0.295 0.972c0 0.23-0.044 0.458-0.132 0.67s-0.217 0.406-0.379 0.568c-0.163 0.163-0.356 0.291-0.568 0.379s-0.44 0.133-0.67 0.132zM16 11.333c0.923 0 1.825 0.274 2.593 0.787s1.366 1.242 1.719 2.094c0.353 0.853 0.446 1.791 0.266 2.696s-0.625 1.737-1.277 2.389c-0.653 0.653-1.484 1.097-2.39 1.277s-1.844 0.088-2.696-0.266c-0.853-0.353-1.582-0.951-2.094-1.719s-0.787-1.67-0.787-2.593c0.001-1.237 0.493-2.424 1.368-3.299s2.061-1.367 3.298-1.368zM16 9c-1.384 0-2.738 0.411-3.889 1.18s-2.048 1.862-2.578 3.142c-0.53 1.279-0.668 2.687-0.398 4.044s0.937 2.605 1.916 3.584c0.979 0.979 2.226 1.646 3.584 1.916s2.765 0.132 4.044-0.398c1.279-0.53 2.372-1.427 3.142-2.578s1.18-2.505 1.18-3.889c0-1.857-0.737-3.637-2.050-4.95s-3.093-2.050-4.95-2.050z"></path>
</symbol>
<symbol id="icon-logo-linkedin" viewBox="0 0 32 32">
<path d="M27.761 2h-23.368c-1.277 0-2.393 0.919-2.393 2.181v23.42c0 1.269 1.116 2.399 2.393 2.399h23.361c1.284 0 2.246-1.138 2.246-2.399v-23.42c0.008-1.262-0.963-2.181-2.239-2.181zM10.679 25.339h-4.011v-12.472h4.011v12.472zM8.813 10.971h-0.029c-1.284 0-2.115-0.956-2.115-2.152 0-1.218 0.853-2.151 2.166-2.151s2.116 0.926 2.144 2.151c-0.001 1.196-0.832 2.152-2.166 2.152zM25.339 25.339h-4.011v-6.819c0-1.634-0.584-2.75-2.035-2.75-1.109 0-1.765 0.75-2.057 1.481-0.109 0.263-0.139 0.62-0.139 0.985v7.104h-4.011v-12.472h4.011v1.736c0.584-0.831 1.496-2.027 3.618-2.027 2.633 0 4.625 1.736 4.625 5.477l-0.001 7.286z"></path>
</symbol>
<symbol id="icon-logo-whatsapp" viewBox="0 0 32 32">
<path d="M25.921 6.069c-1.294-1.295-2.832-2.321-4.524-3.019s-3.507-1.055-5.337-1.049c-7.684 0-13.939 6.224-13.942 13.875-0.003 2.436 0.639 4.83 1.861 6.938l-1.978 7.187 7.391-1.929c2.046 1.108 4.336 1.688 6.663 1.688h0.006c7.683 0 13.938-6.224 13.941-13.875 0.005-1.825-0.354-3.632-1.054-5.317s-1.729-3.214-3.025-4.497zM16.059 27.416h-0.005c-2.074 0.001-4.111-0.554-5.898-1.608l-0.423-0.25-4.386 1.145 1.171-4.256-0.276-0.437c-1.16-1.836-1.774-3.964-1.772-6.136 0-6.358 5.201-11.531 11.593-11.531 3.066-0.005 6.009 1.207 8.181 3.371s3.396 5.102 3.402 8.169c-0.003 6.359-5.201 11.533-11.588 11.533zM22.414 18.78c0.349 0.173 0.581 0.26 0.668 0.405s0.086 0.838-0.203 1.648c-0.289 0.81-1.683 1.549-2.352 1.649-0.6 0.089-1.359 0.126-2.194-0.137-0.674-0.208-1.337-0.452-1.986-0.73-3.494-1.502-5.778-5.004-5.951-5.235s-1.422-1.881-1.422-3.586 0.9-2.545 1.219-2.893c0.117-0.132 0.259-0.239 0.419-0.314s0.333-0.116 0.51-0.12c0.231 0 0.465 0.002 0.668 0.012 0.214 0.011 0.501-0.081 0.784 0.595 0.29 0.694 0.987 2.401 1.074 2.574s0.144 0.376 0.029 0.607c-0.116 0.231-0.174 0.376-0.348 0.579s-0.366 0.452-0.522 0.607c-0.174 0.172-0.356 0.361-0.152 0.707s0.902 1.482 1.938 2.401c1.331 1.181 2.454 1.547 2.802 1.721s0.551 0.148 0.754-0.086c0.203-0.234 0.871-1.012 1.103-1.359s0.466-0.289 0.784-0.174c0.317 0.116 2.032 0.954 2.38 1.128z"></path>
</symbol>
<symbol id="icon-phone" viewBox="0 0 32 32">
<path d="M8.827 14.387c1.92 3.773 5.013 6.853 8.787 8.787l2.933-2.933c0.36-0.36 0.893-0.48 1.36-0.32 1.493 0.493 3.107 0.76 4.76 0.76 0.733 0 1.333 0.6 1.333 1.333v4.653c0 0.733-0.6 1.333-1.333 1.333-12.52 0-22.667-10.147-22.667-22.667 0-0.733 0.6-1.333 1.333-1.333h4.667c0.733 0 1.333 0.6 1.333 1.333 0 1.667 0.267 3.267 0.76 4.76 0.147 0.467 0.040 0.987-0.333 1.36l-2.933 2.933z"></path>
</symbol>
<symbol id="icon-piano" viewBox="0 0 32 32">
<path d="M25.333 4h-18.667c-1.467 0-2.667 1.2-2.667 2.667v18.667c0 1.467 1.2 2.667 2.667 2.667h18.667c1.467 0 2.667-1.2 2.667-2.667v-18.667c0-1.467-1.2-2.667-2.667-2.667zM18.667 19.333h0.333v6h-6v-6h0.333c0.733 0 1.333-0.6 1.333-1.333v-11.333h2.667v11.333c0 0.733 0.6 1.333 1.333 1.333zM6.667 6.667h2.667v11.333c0 0.733 0.6 1.333 1.333 1.333h0.333v6h-4.333v-18.667zM25.333 25.333h-4.333v-6h0.333c0.733 0 1.333-0.6 1.333-1.333v-11.333h2.667v18.667z"></path>
</symbol>
<symbol id="icon-vector" viewBox="0 0 32 32">
<path stroke-linejoin="round" stroke-linecap="round" stroke-miterlimit="4" stroke-width="1.6" d="M10.092 8.615c0-1.884 0.278-3.791 0.985-5.415-4.703 2.047-7.877 6.85-7.877 12.308 0 7.341 5.951 13.292 13.292 13.292 5.457 0 10.26-3.174 12.308-7.877-1.624 0.707-3.531 0.985-5.415 0.985-7.341 0-13.292-5.951-13.292-13.292z"></path>
</symbol>
<symbol id="icon-work-outline" viewBox="0 0 32 32">
<path d="M18.667 8v-2.667h-5.333v2.667h5.333zM5.333 10.667v14.667h21.333v-14.667h-21.333zM26.667 8c1.48 0 2.667 1.187 2.667 2.667v14.667c0 1.48-1.187 2.667-2.667 2.667h-21.333c-1.48 0-2.667-1.187-2.667-2.667l0.013-14.667c0-1.48 1.173-2.667 2.653-2.667h5.333v-2.667c0-1.48 1.187-2.667 2.667-2.667h5.333c1.48 0 2.667 1.187 2.667 2.667v2.667h5.333z"></path>
</symbol>
</defs>
</svg>
