<svg width="30" height="16" viewBox="0 0 30 16" fill="none" xmlns="http://www.w3.org/2000/svg">
<path fill-rule="evenodd" clip-rule="evenodd" d="M13.3725 11.9127V3.39411C13.3725 2.49382 13.1725 1.77263 12.7727 1.23055C12.1675 0.872343 11.3625 0.693241 10.3575 0.693241H4.56273C2.03682 0.693241 0.773869 1.82461 0.773869 4.08735V12.6059C0.773869 13.5062 0.973801 14.2274 1.37367 14.7695C1.9788 15.1277 2.78387 15.3068 3.78886 15.3068H9.58359C12.1095 15.3068 13.3725 14.1754 13.3725 11.9127ZM3.7641 1.68596H9.60836C10.4276 1.68596 10.948 1.95376 11.1693 2.48935C11.7672 2.68767 12.0662 3.15378 12.0662 3.8877V12.8055C12.0662 13.8112 11.5049 14.314 10.3822 14.314H4.53797C3.7187 14.314 3.19836 14.0462 2.97698 13.5106C2.3791 13.3123 2.08016 12.8462 2.08016 12.1123V3.19445C2.08016 2.18879 2.64147 1.68596 3.7641 1.68596Z" fill="white"/>
<path d="M13.3725 3.39411V11.9127C13.3725 14.1754 12.1095 15.3068 9.58359 15.3068H3.78886C2.78387 15.3068 1.9788 15.1277 1.37367 14.7695C1.9788 15.5898 3.04182 16 4.56273 16H10.3575C12.8834 16 14.1463 14.8686 14.1463 12.6059V4.08735C14.1463 2.7249 13.6884 1.77263 12.7727 1.23055C13.1725 1.77263 13.3725 2.49382 13.3725 3.39411Z" fill="#FFF963"/>
<path fill-rule="evenodd" clip-rule="evenodd" d="M0 3.39411V11.9127C0 13.2751 0.457889 14.2274 1.37367 14.7695C0.973801 14.2274 0.773869 13.5062 0.773869 12.6059V4.08735C0.773869 1.82461 2.03682 0.693241 4.56273 0.693241H10.3575C11.3625 0.693241 12.1675 0.872343 12.7727 1.23055C12.1675 0.410182 11.1045 0 9.58359 0H3.78886C1.26295 0 0 1.13137 0 3.39411ZM2.97698 13.5106C3.19836 14.0462 3.7187 14.314 4.53797 14.314H10.3822C11.5049 14.314 12.0662 13.8112 12.0662 12.8055V3.8877C12.0662 3.15378 11.7672 2.68767 11.1693 2.48935C11.2513 2.68767 11.2923 2.9227 11.2923 3.19445V12.1123C11.2923 13.118 10.731 13.6208 9.60836 13.6208H3.7641C3.46074 13.6208 3.19836 13.5841 2.97698 13.5106Z" fill="#9BE1FF"/>
<path d="M9.60836 1.68596H3.7641C2.64147 1.68596 2.08016 2.18879 2.08016 3.19445V12.1123C2.08016 12.8462 2.3791 13.3123 2.97698 13.5106C2.89501 13.3123 2.85403 13.0773 2.85403 12.8055V3.8877C2.85403 2.88203 3.41534 2.3792 4.53797 2.3792H10.3822C10.6856 2.3792 10.948 2.41592 11.1693 2.48935C10.948 1.95376 10.4276 1.68596 9.60836 1.68596Z" fill="#FFF963"/>
<path d="M29.2261 14.8853L22.7628 6.30017L28.3841 0.693241H27.3007L19.4506 8.54627V7.07888L18.6768 7.85303V0.693241H17.3705V15.3068H18.6768V10.3376L21.4008 7.65338L22.0258 8.49327L22.1746 8.34662L27.3544 15.3068H29.028L29.2261 14.8853Z" fill="white"/>
<path d="M19.4506 7.07888V0.693241H18.6768V7.85303L19.4506 7.07888Z" fill="#FFF963"/>
<path d="M21.4008 7.65338L18.6768 10.3376V15.3068H17.3705V16H19.4506V11.0308L22.0258 8.49327L21.4008 7.65338Z" fill="#FFF963"/>
<path fill-rule="evenodd" clip-rule="evenodd" d="M16.5966 0V15.3068H17.3705V0.693241H18.6768V0H16.5966ZM19.4506 8.54627V7.07888L26.5269 0H28.4337L28.6566 0.421492L28.3841 0.693241H27.3007L19.4506 8.54627Z" fill="#9BE1FF"/>
<path d="M22.7628 6.30017L29.2261 14.8853L29.028 15.3068H27.3544L27.8703 16H29.8019L30 15.5785L23.5366 6.99341L29.4304 1.11473L29.2076 0.693241H28.3841L22.7628 6.30017Z" fill="#FFF963"/>
<path d="M22.0258 8.49327L27.0964 15.3068H27.3544L22.1746 8.34662L22.0258 8.49327Z" fill="#9BE1FF"/>
</svg>
