<svg width="12" height="12" viewBox="0 0 12 12" fill="none" xmlns="http://www.w3.org/2000/svg">
<g clip-path="url(#clip0_4602_3)">
<path d="M6 2.18182C5.84545 2.18182 5.716 2.12945 5.61164 2.02473C5.50691 1.92036 5.45455 1.79091 5.45455 1.63636V0.545455C5.45455 0.390909 5.50691 0.261273 5.61164 0.156545C5.716 0.0521818 5.84545 0 6 0C6.15455 0 6.28418 0.0521818 6.38891 0.156545C6.49327 0.261273 6.54545 0.390909 6.54545 0.545455V1.63636C6.54545 1.79091 6.49327 1.92036 6.38891 2.02473C6.28418 2.12945 6.15455 2.18182 6 2.18182ZM8.7 3.3C8.6 3.2 8.55 3.07491 8.55 2.92473C8.55 2.77491 8.6 2.64545 8.7 2.53636L9.46364 1.75909C9.57273 1.65 9.70218 1.59545 9.852 1.59545C10.0022 1.59545 10.1318 1.65 10.2409 1.75909C10.3409 1.85909 10.3909 1.98636 10.3909 2.14091C10.3909 2.29545 10.3409 2.42273 10.2409 2.52273L9.46364 3.3C9.36364 3.4 9.23636 3.45 9.08182 3.45C8.92727 3.45 8.8 3.4 8.7 3.3ZM10.3636 6.54545C10.2091 6.54545 10.0796 6.49309 9.97527 6.38836C9.87055 6.284 9.81818 6.15455 9.81818 6C9.81818 5.84545 9.87055 5.71582 9.97527 5.61109C10.0796 5.50673 10.2091 5.45455 10.3636 5.45455H11.4545C11.6091 5.45455 11.7385 5.50673 11.8429 5.61109C11.9476 5.71582 12 5.84545 12 6C12 6.15455 11.9476 6.284 11.8429 6.38836C11.7385 6.49309 11.6091 6.54545 11.4545 6.54545H10.3636ZM6 12C5.84545 12 5.716 11.9476 5.61164 11.8429C5.50691 11.7385 5.45455 11.6091 5.45455 11.4545V10.3636C5.45455 10.2091 5.50691 10.0796 5.61164 9.97527C5.716 9.87055 5.84545 9.81818 6 9.81818C6.15455 9.81818 6.28418 9.87055 6.38891 9.97527C6.49327 10.0796 6.54545 10.2091 6.54545 10.3636V11.4545C6.54545 11.6091 6.49327 11.7385 6.38891 11.8429C6.28418 11.9476 6.15455 12 6 12ZM2.53636 3.3L1.75909 2.53636C1.65 2.42727 1.59545 2.29545 1.59545 2.14091C1.59545 1.98636 1.65 1.85909 1.75909 1.75909C1.85909 1.65909 1.98636 1.60909 2.14091 1.60909C2.29545 1.60909 2.42273 1.65909 2.52273 1.75909L3.3 2.53636C3.4 2.63636 3.45 2.76364 3.45 2.91818C3.45 3.07273 3.4 3.2 3.3 3.3C3.19091 3.4 3.06364 3.45 2.91818 3.45C2.77273 3.45 2.64545 3.4 2.53636 3.3ZM9.46364 10.2409L8.7 9.46364C8.6 9.35455 8.55 9.22509 8.55 9.07527C8.55 8.92509 8.6 8.8 8.7 8.7C8.8 8.6 8.92509 8.55 9.07527 8.55C9.22509 8.55 9.35455 8.6 9.46364 8.7L10.2409 9.46364C10.35 9.56364 10.4022 9.69091 10.3975 9.84545C10.3931 10 10.3409 10.1318 10.2409 10.2409C10.1318 10.35 10 10.4045 9.84545 10.4045C9.69091 10.4045 9.56364 10.35 9.46364 10.2409ZM0.545455 6.54545C0.390909 6.54545 0.261455 6.49309 0.157091 6.38836C0.0523636 6.284 0 6.15455 0 6C0 5.84545 0.0523636 5.71582 0.157091 5.61109C0.261455 5.50673 0.390909 5.45455 0.545455 5.45455H1.63636C1.79091 5.45455 1.92055 5.50673 2.02527 5.61109C2.12964 5.71582 2.18182 5.84545 2.18182 6C2.18182 6.15455 2.12964 6.284 2.02527 6.38836C1.92055 6.49309 1.79091 6.54545 1.63636 6.54545H0.545455ZM1.75909 10.2409C1.65909 10.1409 1.60909 10.0136 1.60909 9.85909C1.60909 9.70455 1.65909 9.57727 1.75909 9.47727L2.53636 8.7C2.63636 8.6 2.76145 8.55 2.91164 8.55C3.06145 8.55 3.19091 8.6 3.3 8.7C3.40909 8.80909 3.46364 8.93873 3.46364 9.08891C3.46364 9.23873 3.40909 9.36818 3.3 9.47727L2.53636 10.2409C2.42727 10.35 2.29545 10.4045 2.14091 10.4045C1.98636 10.4045 1.85909 10.35 1.75909 10.2409ZM6 9.27273C5.09091 9.27273 4.31818 8.95455 3.68182 8.31818C3.04545 7.68182 2.72727 6.90909 2.72727 6C2.72727 5.09091 3.04545 4.31818 3.68182 3.68182C4.31818 3.04545 5.09091 2.72727 6 2.72727C6.90909 2.72727 7.68182 3.04545 8.31818 3.68182C8.95455 4.31818 9.27273 5.09091 9.27273 6C9.27273 6.90909 8.95455 7.68182 8.31818 8.31818C7.68182 8.95455 6.90909 9.27273 6 9.27273ZM6 8.18182C6.6 8.18182 7.11364 7.96818 7.54091 7.54091C7.96818 7.11364 8.18182 6.6 8.18182 6C8.18182 5.4 7.96818 4.88636 7.54091 4.45909C7.11364 4.03182 6.6 3.81818 6 3.81818C5.4 3.81818 4.88636 4.03182 4.45909 4.45909C4.03182 4.88636 3.81818 5.4 3.81818 6C3.81818 6.6 4.03182 7.11364 4.45909 7.54091C4.88636 7.96818 5.4 8.18182 6 8.18182Z" fill="#B5BECA"/>
</g>
<defs>
<clipPath id="clip0_4602_3">
<rect width="12" height="12" fill="white"/>
</clipPath>
</defs>
</svg>
